<svg width="640" height="640" xmlns="http://www.w3.org/2000/svg" xmlns:xlink="http://www.w3.org/1999/xlink" preserveAspectRatio="xMidYMid meet">
 <defs>
  <path id="h1zfiANTeL" d="m232.3,261.07l40.54,-0.01l0.01,193.25l-40.54,0l-0.01,-193.24z"/>
  <path id="bYWCO21tV" d="m384.57,261.34l40.54,-0.49l2.37,193.22l-40.53,0.5l-2.38,-193.23z"/>
  <path id="a5A4nDVcDI" d="m268.78,454.31c4.48,0 8.11,3.63 8.11,8.11c0,1.62 0,-1.63 0,0c0,4.47 -3.63,8.1 -8.11,8.1c-18.38,0 -65.4,0 -83.78,0c-4.48,0 -8.11,-3.63 -8.11,-8.1c0,-1.63 0,1.62 0,0c0,-4.48 3.63,-8.11 8.11,-8.11c18.38,0 65.4,0 83.78,0z"/>
  <path id="aBMVJAeey" d="m473.04,454.31c4.48,0 8.11,3.63 8.11,8.11c0,1.62 0,-1.63 0,0c0,4.47 -3.63,8.1 -8.11,8.1c-18.38,0 -65.4,0 -83.78,0c-4.48,0 -8.11,-3.63 -8.11,-8.1c0,-1.63 0,1.62 0,0c0,-4.48 3.63,-8.11 8.11,-8.11c18.38,0 65.4,0 83.78,0z"/>
 </defs>
 <g>
  <title>background</title>
  <rect fill="none" id="canvas_background" height="402" width="582" y="-1" x="-1"/>
 </g>
 <g>
  <title>Layer 1</title>
  <g id="svg_1">
   <g id="svg_2">
    <g id="svg_3">
     <use id="svg_4" fill="#000000" xlink:href="#h1zfiANTeL"/>
    </g>
    <g id="svg_5">
     <use id="svg_6" fill="#000000" xlink:href="#bYWCO21tV"/>
    </g>
    <g id="svg_7">
     <use id="svg_8" fill="#2982e9" xlink:href="#a5A4nDVcDI"/>
    </g>
    <g id="svg_9">
     <use id="svg_10" fill="#2982e9" xlink:href="#aBMVJAeey"/>
    </g>
   </g>
  </g>
  <rect id="svg_22" height="152" width="40.5" y="120" x="232.5" stroke-width="0" stroke="#fff" fill="#000"/>
  <rect stroke="#fff" id="svg_23" height="152" width="40.5" y="120" x="384.5" stroke-width="0" fill="#000"/>
 </g>
</svg>